<svg id="Capa_1" enable-background="new 0 0 510 510" height="512" viewBox="0 0 510 510" width="512" xmlns="http://www.w3.org/2000/svg"><g><path d="m478 112v-64h-158v64h-320v350h510v-350zm-128-34h98v34h-98zm130 354h-450v-290h450z"/><path d="m335 398c61.206 0 111-49.794 111-111s-49.794-111-111-111-111 49.794-111 111 49.794 111 111 111zm0-192c44.664 0 81 36.337 81 81s-36.336 81-81 81-81-36.337-81-81 36.336-81 81-81z"/><path d="m198 176h-134v94h134zm-30 64h-74v-34h74z"/><path d="m99 389.21c7.507 11.705 24.482 11.722 32 0 10.289 16.043 35 8.624 35-10.21 0-18.831-24.709-26.256-35-10.21-7.507-11.705-24.482-11.722-32 0-10.289-16.043-35-8.624-35 10.21 0 18.831 24.709 26.256 35 10.21z"/></g></svg>